<svg id="OBJECTS" xmlns="http://www.w3.org/2000/svg" viewBox="0 0 29.04 29"><defs><style>.cls-1{fill:#ff891f;}.cls-2{fill:#fff;}</style></defs><title>logotip</title><path class="cls-1" d="M27.45,14.5a13,13,0,1,0-13.81,13V23.21l.57,0c.37,0,.73,0,1.09-.06v4.29A13,13,0,0,0,27.45,14.5Z"/><path class="cls-2" d="M15.3,23.17c-.36,0-.72.06-1.09.06l-.57,0v4.25c.27,0,.54,0,.81,0s.57,0,.85,0V23.17Z"/><path class="cls-1" d="M19.26,9.78a6.45,6.45,0,0,0-1.58-1.15,6.9,6.9,0,0,0-3.21-.74,6.93,6.93,0,0,0-3.25.76A6.63,6.63,0,0,0,9.68,9.78a6.34,6.34,0,0,0-1.92,4.71,6.41,6.41,0,0,0,1.92,4.76,6.93,6.93,0,0,0,1.54,1.13,6.79,6.79,0,0,0,2.68.73V16.69a2.34,2.34,0,1,1,1.66,0v4.36a6.32,6.32,0,0,0,3.7-1.8,6.41,6.41,0,0,0,1.92-4.76A6.34,6.34,0,0,0,19.26,9.78Z"/><path class="cls-2" d="M20.75,8.23a8.44,8.44,0,0,0-3.07-2,9.24,9.24,0,0,0-3.21-.55,9.43,9.43,0,0,0-3.25.56,8.26,8.26,0,0,0-3,2,8.61,8.61,0,0,0-2.51,6.3,8.53,8.53,0,0,0,2.51,6.26,8.26,8.26,0,0,0,3,2,9,9,0,0,0,2.68.53c.19,0,.38,0,.57,0,.37,0,.74,0,1.09-.06a9,9,0,0,0,2.12-.49,8.31,8.31,0,0,0,3.07-2,8.53,8.53,0,0,0,2.51-6.26A8.61,8.61,0,0,0,20.75,8.23Zm-1.49,11a6.32,6.32,0,0,1-3.7,1.8,7.66,7.66,0,0,1-1.09.08l-.57,0a6.79,6.79,0,0,1-2.68-.73,6.93,6.93,0,0,1-1.54-1.13,6.41,6.41,0,0,1-1.92-4.76A6.34,6.34,0,0,1,9.68,9.78a6.63,6.63,0,0,1,1.54-1.13,6.93,6.93,0,0,1,3.25-.76,6.9,6.9,0,0,1,3.21.74,6.45,6.45,0,0,1,1.58,1.15,6.34,6.34,0,0,1,1.92,4.71A6.41,6.41,0,0,1,19.26,19.25Z"/><path class="cls-2" d="M14.47,12.18a2.33,2.33,0,0,0-.83,4.51v4.42l.57,0a8,8,0,0,0,1.1,0V16.69a2.33,2.33,0,0,0-.83-4.51Z"/></svg>