<?xml version="1.0" standalone="no"?>
<!DOCTYPE svg PUBLIC "-//W3C//DTD SVG 20010904//EN"
 "http://www.w3.org/TR/2001/REC-SVG-20010904/DTD/svg10.dtd">
<svg version="1.0" xmlns="http://www.w3.org/2000/svg"
 width="700.000000pt" height="700.000000pt" viewBox="0 0 700.000000 700.000000"
 preserveAspectRatio="xMidYMid meet">
<metadata>
Created by potrace 1.11, written by Peter Selinger 2001-2013
</metadata>
<g transform="translate(0.000000,700.000000) scale(0.100000,-0.100000)"
fill="#000000" stroke="none">
<path d="M3245 6623 c-975 -82 -1832 -585 -2370 -1393 -485 -728 -643 -1628
-435 -2478 164 -671 548 -1277 1083 -1705 334 -268 776 -489 1185 -592 156
-39 330 -70 442 -80 41 -3 90 -8 108 -11 l32 -5 0 506 c0 278 -3 505 -7 505
-5 0 -68 9 -142 20 -374 55 -666 178 -956 405 -105 82 -335 320 -408 422 -218
306 -347 635 -387 991 -19 166 -8 570 19 707 84 415 250 747 523 1042 344 373
720 572 1228 650 159 24 501 24 660 0 235 -36 419 -92 615 -187 414 -200 758
-545 961 -966 123 -253 185 -494 206 -791 45 -652 -153 -1213 -587 -1661 -331
-342 -726 -544 -1197 -609 l-128 -18 0 -499 0 -499 86 7 c680 55 1374 375
1878 865 534 520 852 1161 942 1901 22 178 22 519 0 696 -101 834 -497 1558
-1141 2086 -553 452 -1268 703 -1987 696 -101 -1 -201 -3 -223 -5z"/>
<path d="M3335 5090 c-578 -51 -1054 -369 -1305 -869 -53 -107 -114 -290 -135
-406 -23 -126 -31 -378 -15 -517 55 -511 354 -956 808 -1205 145 -80 386 -158
545 -178 l57 -6 0 530 0 530 -54 27 c-146 71 -258 213 -296 374 -19 81 -15
213 9 290 89 283 371 447 662 386 358 -76 548 -486 376 -810 -47 -88 -137
-180 -224 -228 l-73 -40 0 -525 0 -526 57 7 c474 56 914 348 1157 771 218 379
265 898 121 1331 -108 326 -329 613 -620 806 -241 159 -533 249 -850 261 -71
3 -170 2 -220 -3z"/>
</g>
</svg>
