<svg id="OBJECTS" xmlns="http://www.w3.org/2000/svg" viewBox="0 0 193.96 31.58"><defs><style>.cls-1{fill:#ff891f}.cls-2{fill:#fff}</style></defs><path class="cls-1" d="M75.72 13.24a2.32 2.32 0 012.17 1.5h4.37a6.56 6.56 0 00-.66-2.12 6.15 6.15 0 00-1.15-1.57 6.76 6.76 0 00-9.46 0 6.44 6.44 0 00-1.16 1.57 6.91 6.91 0 00-.73 3.22 6.77 6.77 0 00.76 3.24A6.4 6.4 0 0071 20.63a6.79 6.79 0 009.46 0 6.4 6.4 0 001.13-1.55 6.6 6.6 0 00.74-2.68h-4.44a2.33 2.33 0 11-2.17-3.16zm15.36 1.5a11.43 11.43 0 00-.34-2.12c-.11-.41-.24-.82-.39-1.22a6.48 6.48 0 00-.84 1.22 6.59 6.59 0 00-.68 2.12zm-66.62-3.69a6 6 0 00-4.58-1.93 6.12 6.12 0 00-4.61 1.93 6.54 6.54 0 00-1.12 1.57 7 7 0 00-.72 3.22 6.87 6.87 0 00.74 3.24 6.54 6.54 0 001.1 1.55 6.15 6.15 0 004.61 1.92 6.07 6.07 0 004.58-1.92 6.84 6.84 0 001.1-1.55 7.12 7.12 0 00.73-3.24 7.16 7.16 0 00-.71-3.22 6.54 6.54 0 00-1.12-1.57zM45 17.25a2.75 2.75 0 00-2-.85h-7.17v5.92H43a2.75 2.75 0 002-.85 2.88 2.88 0 00.83-2.13 2.28 2.28 0 000-.26 2.78 2.78 0 00-.83-1.83zm-.72-3.38a2.43 2.43 0 00.72-1.25 2.59 2.59 0 00.08-.63 2.5 2.5 0 00-.79-1.89 2.79 2.79 0 00-2-.75h-6.46v5.28h6.45a2.75 2.75 0 002-.76z"/><path class="cls-1" d="M87.12 19.08a8.93 8.93 0 01-.55-2.68H84.5a9.24 9.24 0 01-.5 2.68 8.3 8.3 0 01-2 3 9.14 9.14 0 01-12.56 0 8.3 8.3 0 01-2-3 9.19 9.19 0 01-.56-3.24 9.3 9.3 0 01.55-3.22 8.27 8.27 0 012-3.06 9.11 9.11 0 0112.57 0 8.27 8.27 0 012 3.06 8.62 8.62 0 01.48 2.12h2.15a8.63 8.63 0 01.49-2.12 8.3 8.3 0 012-3.06l.24-.21a11.75 11.75 0 00-10-5.54h-64A11.76 11.76 0 004 12.62a12 12 0 00-.38 3 11.74 11.74 0 0011.76 11.71h64a11.74 11.74 0 009.75-5.19 8.3 8.3 0 01-2.01-3.06zm-58.68 5.24h-2.08v-3.09a7.77 7.77 0 01-6.71 3.39 8 8 0 01-6-2.5 8.46 8.46 0 01-1.88-3 9.66 9.66 0 01-.53-3.24 9.79 9.79 0 01.52-3.22 8.43 8.43 0 011.89-3.06 8 8 0 016-2.51 8.17 8.17 0 013.81.9 8.49 8.49 0 012.9 2.49V7.35h2.08v17zm18.14-1.38A5 5 0 0143 24.32h-9.2v-17h8.52a5.12 5.12 0 013.53 1.26 4 4 0 011.41 3.15 4.74 4.74 0 01-.08.86 4.18 4.18 0 01-1.92 2.73 4.6 4.6 0 012 1.67 4.29 4.29 0 01.74 2.09 2.83 2.83 0 010 .41 4.54 4.54 0 01-1.42 3.45zm9.88 1.38v-15h-6.71v-2h15.5v2h-6.71v14.97z"/><path class="cls-1" d="M89.54 19.08a6.24 6.24 0 00.68 1c.14-.33.26-.67.37-1a11.24 11.24 0 00.49-2.68h-2.3a6.42 6.42 0 00.76 2.68z"/><path class="cls-2" d="M24.46 20.63a6.07 6.07 0 01-4.58 1.92 6.15 6.15 0 01-4.61-1.92 6.54 6.54 0 01-1.1-1.55h-2.4a8.46 8.46 0 001.88 3 8 8 0 006 2.5 7.77 7.77 0 006.71-3.39v3.09h2.08v-5.2h-2.88a6.84 6.84 0 01-1.1 1.55z"/><path class="cls-2" d="M25.58 12.62a7.16 7.16 0 01.71 3.22 7.12 7.12 0 01-.73 3.24h2.88v-6.46z"/><path class="cls-2" d="M15.27 11.05a6.12 6.12 0 014.61-1.93 6 6 0 014.58 1.93 6.54 6.54 0 011.12 1.57h2.86V7.35h-2.08v3.09A8.49 8.49 0 0023.46 8a8.17 8.17 0 00-3.81-.9 8 8 0 00-6 2.51 8.43 8.43 0 00-1.89 3.06h2.39a6.54 6.54 0 011.12-1.62z"/><path class="cls-2" d="M13.43 15.84a7 7 0 01.72-3.22h-2.39a9.79 9.79 0 00-.52 3.22 9.66 9.66 0 00.53 3.24h2.4a6.87 6.87 0 01-.74-3.24zm32.43 3.5a2.88 2.88 0 01-.86 2.13 2.75 2.75 0 01-2.07.85h-7.1v-3.24h-2.07v5.24H43a5 5 0 003.62-1.38A4.54 4.54 0 0048 19.49a2.83 2.83 0 000-.41h-2.16a2.28 2.28 0 01.02.26z"/><path class="cls-2" d="M45.22 15.35a4.18 4.18 0 001.92-2.73H45a2.43 2.43 0 01-.71 1.25 2.75 2.75 0 01-2 .76h-6.46v-2h-2.07v6.46h2.07V16.4H43a2.75 2.75 0 012.07.85 2.78 2.78 0 01.81 1.83H48a4.29 4.29 0 00-.74-2.08 4.6 4.6 0 00-2.04-1.65z"/><path class="cls-2" d="M35.83 9.35h6.45a2.79 2.79 0 012 .75 2.5 2.5 0 01.79 1.9 2.59 2.59 0 01-.08.63h2.15a4.74 4.74 0 00.08-.86 4 4 0 00-1.41-3.15 5.12 5.12 0 00-3.53-1.26h-8.52v5.27h2.07zm20.63 14.97h2.12l-.02-5.24h-2.1v5.24zm0-11.7v6.46h2.1l-.01-6.46h-2.09zm2.08-3.27h6.71v-2h-15.5v2h6.71v3.27h2.09l-.01-3.27zm23.78 7.05a6.6 6.6 0 01-.74 2.68H84a9.24 9.24 0 00.53-2.68zm-1.87 4.23a6.62 6.62 0 01-10.59-1.55h-2.39a8.3 8.3 0 002 3 9.14 9.14 0 0012.56 0 8.3 8.3 0 002-3h-2.45a6.4 6.4 0 01-1.13 1.55zM69.1 15.84a6.91 6.91 0 01.73-3.22h-2.37a9.3 9.3 0 00-.55 3.22 9.19 9.19 0 00.56 3.24h2.39a6.77 6.77 0 01-.76-3.24z"/><path class="cls-2" d="M71 11.05a6.76 6.76 0 019.46 0 6.15 6.15 0 011.15 1.57H84a8.27 8.27 0 00-2-3.06 9.11 9.11 0 00-12.56 0 8.27 8.27 0 00-2 3.06h2.37A6.44 6.44 0 0171 11.05zm11.26 3.69h2.2a8.62 8.62 0 00-.46-2.12h-2.4a6.56 6.56 0 01.66 2.12z"/><path d="M109.11 12.62a6.49 6.49 0 011.17-1.57A6.36 6.36 0 01115 9.12a7.55 7.55 0 011.21.11v5.51h2.07V9.23a6.8 6.8 0 011.17-.11 6.34 6.34 0 014.75 1.93 6.15 6.15 0 011.15 1.57 6.56 6.56 0 01.66 2.12h2.17a9.1 9.1 0 00-.48-2.12 8.37 8.37 0 00-2-3.06 8.48 8.48 0 00-6.28-2.51 7.14 7.14 0 00-1.17.07V1.79h-2.07v5.33a7.44 7.44 0 00-1.18-.07 8.49 8.49 0 00-6.28 2.51 8.22 8.22 0 00-2 3.06 8.63 8.63 0 00-.49 2.12h2.17a6.81 6.81 0 01.71-2.12zm16.23 6.46a6.46 6.46 0 01-5.88 3.47 6.8 6.8 0 01-1.17-.11v-6h-2.07v6a7.55 7.55 0 01-1.21.11 6.5 6.5 0 01-6.61-6.15h-2.15a8.92 8.92 0 00.53 2.68 8.25 8.25 0 002 3 8.52 8.52 0 006.28 2.5 7.44 7.44 0 001.21-.07v5.24h2.07v-5.2a7.14 7.14 0 001.17.07 8.51 8.51 0 006.28-2.5 8.25 8.25 0 002-3 8.93 8.93 0 00.54-2.68h-2.15a6.6 6.6 0 01-.84 2.64zm21.05-9.52a8.65 8.65 0 00-14.29 3.06 9.54 9.54 0 00-.53 3.22 9.19 9.19 0 00.56 3.24 8.35 8.35 0 002 3 8.71 8.71 0 006.39 2.5 9.11 9.11 0 004.48-1.05 8.07 8.07 0 003-2.79l.08-.13a.86.86 0 00.07-.1 7.69 7.69 0 00.68-1.38h-2.25a7.57 7.57 0 01-.49.79 6.36 6.36 0 01-5.51 2.74 6.76 6.76 0 01-4.72-1.75 6.58 6.58 0 01-1.39-1.83 6.69 6.69 0 01-.72-2.6h15.16v-.74a9.24 9.24 0 00-.54-3.12 8.19 8.19 0 00-1.98-3.06zm-12.67 5.18a7 7 0 01.64-2.12 6.56 6.56 0 011.51-2 6.24 6.24 0 014.3-1.62 6.39 6.39 0 014.39 1.62 6.29 6.29 0 011.52 2 6.72 6.72 0 01.65 2.12zm22.07-2.12a6.31 6.31 0 011.13-1.57 6.45 6.45 0 019.2 0 6.58 6.58 0 011.13 1.57 7.06 7.06 0 01.64 2.12h2.17a9.09 9.09 0 00-.47-2.12 8.3 8.3 0 00-1.89-3.06 8 8 0 00-6-2.51 8.11 8.11 0 00-3.81.9 8.52 8.52 0 00-2.89 2.49V7.35h-2v7.39h2.2a6.53 6.53 0 01.59-2.12zm11.44 6.46a6.89 6.89 0 01-1.11 1.55 6.47 6.47 0 01-9.2 0 6.31 6.31 0 01-1.11-1.55 6.74 6.74 0 01-.72-2.68H153v13.39h2v-8.56a7.79 7.79 0 006.72 3.39 8 8 0 006-2.5 8.33 8.33 0 001.88-3 9.24 9.24 0 00.51-2.68h-2.15a6.73 6.73 0 01-.73 2.64zm21.26-11.73v3.09A8.52 8.52 0 00185.58 8a8.17 8.17 0 00-3.81-.9 8 8 0 00-6 2.51 8.43 8.43 0 00-1.89 3.06 9.62 9.62 0 00-.46 2.12h2.21a6.53 6.53 0 01.64-2.12 6.31 6.31 0 011.13-1.57 6.42 6.42 0 019.18 0 6.54 6.54 0 011.12 1.57 6.78 6.78 0 01.63 2.12h2.23V7.35zm-.81 11.73a6.84 6.84 0 01-1.1 1.55 6.45 6.45 0 01-9.18 0 6.59 6.59 0 01-1.11-1.55 6.74 6.74 0 01-.72-2.68h-2.19a9.24 9.24 0 00.52 2.68 8.44 8.44 0 001.87 3 8 8 0 006 2.5 7.79 7.79 0 006.72-3.39v3.09h2.07V16.4h-2.17a6.9 6.9 0 01-.71 2.68zm-85.92-9.52a9.24 9.24 0 00-12.43-.21l-.24.21a8.3 8.3 0 00-2 3.06 8.63 8.63 0 00-.49 2.12h2.22a6.59 6.59 0 01.68-2.12 6.48 6.48 0 01.84-1.22c.1-.12.19-.24.3-.35a6.73 6.73 0 0110.71 1.57h2.39a8.22 8.22 0 00-1.98-3.06zm-.42 9.52a6.83 6.83 0 01-10.69 1.55c-.16-.17-.29-.35-.43-.53a6.24 6.24 0 01-.68-1 6.42 6.42 0 01-.76-2.68h-2.21a8.93 8.93 0 00.55 2.68 8.3 8.3 0 002 3 9.27 9.27 0 0012.64 0 8.33 8.33 0 002-3h-2.4z" fill="#606060"/><path class="cls-2" d="M86.61 14.74h-2.15a9.84 9.84 0 01.07 1.1v.56h2.07v-.56a9.87 9.87 0 01.01-1.1zm-4.35 0h-4.37a2.23 2.23 0 010 1.66h4.43v-.56a7.91 7.91 0 00-.06-1.1z"/><path class="cls-2" d="M84.46 14.74h-2.2a7.91 7.91 0 01.08 1.1v.56h2.16v-.56a9.84 9.84 0 00-.04-1.1zm6.67.83v-.83h-2.3a7.91 7.91 0 00-.08 1.1 5.12 5.12 0 000 .56h2.3v-.83z"/><path class="cls-2" d="M86.55 15.84v.56h2.21a5.12 5.12 0 010-.56 7.91 7.91 0 01.08-1.1h-2.23a9.87 9.87 0 00-.06 1.1zm-10.83-2.6a2.33 2.33 0 102.17 3.16h-2.17v-1.66h2.17a2.32 2.32 0 00-2.17-1.5z"/><path class="cls-2" d="M75.72 16.4h2.17a2.23 2.23 0 000-1.66h-2.17z"/></svg>