<svg xmlns="http://www.w3.org/2000/svg" viewBox="0 0 137.238 137.238"><path d="M125.072 56.453C125.072 25.323 99.748 0 68.619 0S12.166 25.323 12.166 56.453c0 30.371 24.124 55.146 54.203 56.333v21.469c0 1.641 1.337 2.983 2.983 2.983s2.983-1.343 2.983-2.983V112.72c29.394-1.939 52.737-26.391 52.737-56.267zm-52.736 50.3V42.908l26.946 26.94a2.996 2.996 0 004.219 0 2.985 2.985 0 000-4.219L71.465 33.605l-2.112-2.118-2.112 2.112-.006.006L35.216 65.63a2.985 2.985 0 000 4.219 2.947 2.947 0 002.112.871c.764 0 1.528-.292 2.112-.871l26.934-26.94v63.911c-26.785-1.181-48.236-23.283-48.236-50.36 0-27.835 22.65-50.486 50.486-50.486s50.486 22.65 50.486 50.486c-.005 26.575-20.675 48.366-46.774 50.293z" fill="#303030"/></svg>